<svg width="24" height="24" viewBox="0 0 24 24" fill="none" xmlns="http://www.w3.org/2000/svg" >
<path opacity="0.4" d="M2.32694 4.28658C2.42248 3.46288 2.9222 2.78287 3.73187 2.60381C4.9948 2.32451 7.44275 2 12 2C16.5573 2 19.0052 2.32451 20.2682 2.60381C21.0778 2.78287 21.5775 3.46288 21.673 4.28658C21.8176 5.5322 22 7.58365 22 10C22 14.5142 19.6175 18.7382 15.6037 20.8039C14.2629 21.494 12.9543 22 12 22C11.0457 22 9.7371 21.494 8.3963 20.8039C4.38247 18.7382 2 14.5142 2 10C2 7.58365 2.18247 5.5322 2.32694 4.28658Z" fill="#637381"/>
<path fill-rule="evenodd" clip-rule="evenodd"  d="M8.25 10a.75.75 0 1 0 0 1.5a.75.75 0 0 0 0-1.5Zm-.75 6.25a.75.75 0 1 1 1.5 0a.75.75 0 0 1-1.5 0ZM3 6.25A3.25 3.25 0 0 1 6.25 3h11.5A3.25 3.25 0 0 1 21 6.25v11.5A3.25 3.25 0 0 1 17.75 21H6.25A3.25 3.25 0 0 1 3 17.75V6.25Zm3 4.5a2.25 2.25 0 1 0 4.5 0a2.25 2.25 0 0 0-4.5 0ZM8.25 14a2.25 2.25 0 1 0 0 4.5a2.25 2.25 0 0 0 0-4.5ZM12 10.75c0 .414.336.75.75.75h4.5a.75.75 0 0 0 0-1.5h-4.5a.75.75 0 0 0-.75.75Zm.75 4.75a.75.75 0 0 0 0 1.5h4.5a.75.75 0 0 0 0-1.5h-4.5ZM6 6.25c0 .414.336.75.75.75h10.5a.75.75 0 0 0 0-1.5H6.75a.75.75 0 0 0-.75.75Z" fill="#637381"/>

</svg>